<?xml version="1.0" standalone="no"?>
<!DOCTYPE svg PUBLIC "-//W3C//DTD SVG 20010904//EN"
 "http://www.w3.org/TR/2001/REC-SVG-20010904/DTD/svg10.dtd">
<svg version="1.0" xmlns="http://www.w3.org/2000/svg"
 width="500.000000pt" height="500.000000pt" viewBox="0 0 500.000000 500.000000"
 preserveAspectRatio="xMidYMid meet">

<g transform="translate(0.000000,500.000000) scale(0.100000,-0.100000)"
fill="#000000" stroke="none">
<path d="M212 4707 l-22 -23 0 -1743 c0 -1156 3 -1749 10 -1761 6 -11 27 -24
48 -30 25 -6 531 -10 1537 -10 l1501 0 114 -376 c86 -282 119 -379 134 -390
45 -32 63 -21 226 141 86 85 160 155 165 155 6 0 98 -88 205 -195 168 -168
199 -195 225 -195 26 0 59 28 238 208 174 175 207 213 207 237 0 24 -32 61
-200 229 l-199 201 159 161 c106 106 160 167 160 182 0 46 -39 71 -185 115
l-140 43 -3 1514 -2 1514 -22 23 -21 23 -2057 0 -2057 0 -21 -23z m4028 -372
l0 -245 -1950 0 -1950 0 0 245 0 245 1950 0 1950 0 0 -245z m0 -1510 c0 -781
-3 -1115 -11 -1115 -5 0 -256 74 -556 165 -301 91 -555 165 -566 165 -28 0
-67 -38 -67 -66 0 -12 44 -168 99 -348 l98 -326 -1448 0 -1449 0 0 1320 0
1320 1950 0 1950 0 0 -1115z m-442 -1144 c306 -93 590 -179 631 -191 l74 -22
-136 -136 c-74 -75 -138 -147 -141 -159 -4 -13 -1 -34 8 -50 8 -15 98 -111
200 -213 l186 -185 -132 -132 -133 -133 -195 195 c-252 251 -222 246 -411 59
l-137 -136 -15 49 c-32 97 -367 1209 -367 1216 0 4 2 7 5 7 3 0 256 -76 563
-169z"/>
<path d="M910 4392 c-16 -17 -30 -40 -30 -52 0 -12 14 -35 30 -52 25 -24 36
-29 58 -24 15 4 35 16 45 28 36 43 11 110 -45 124 -22 5 -33 0 -58 -24z"/>
<path d="M1235 4397 c-21 -17 -28 -32 -27 -57 3 -98 142 -98 142 0 0 66 -66
99 -115 57z"/>
<path d="M581 4384 c-28 -35 -26 -69 4 -99 30 -30 64 -32 99 -4 52 41 18 129
-49 129 -24 0 -39 -7 -54 -26z"/>
<path d="M779 3056 c-53 -26 -50 -42 66 -388 61 -182 117 -333 128 -345 24
-27 72 -30 98 -7 10 9 48 107 85 218 36 110 69 204 73 208 4 4 37 -85 75 -198
37 -114 77 -215 87 -225 24 -24 74 -24 98 0 19 19 231 640 231 677 0 12 -8 32
-18 44 -22 28 -75 30 -103 4 -10 -9 -48 -105 -86 -220 -37 -112 -70 -204 -73
-204 -3 0 -36 91 -74 203 -38 111 -77 211 -87 221 -24 26 -79 24 -101 -4 -9
-11 -47 -113 -85 -225 -37 -113 -70 -201 -74 -197 -4 4 -37 98 -73 208 -37
111 -75 208 -84 216 -25 22 -57 27 -83 14z"/>
<path d="M1839 3056 c-53 -26 -50 -42 66 -388 61 -182 117 -333 128 -345 25
-28 77 -31 100 -5 9 10 46 105 82 212 36 107 68 202 71 210 3 8 39 -81 78
-199 45 -133 80 -219 91 -227 27 -20 72 -17 94 5 19 19 231 640 231 677 0 12
-8 32 -18 44 -22 28 -75 30 -103 4 -10 -9 -48 -105 -86 -220 -37 -112 -70
-204 -73 -204 -3 0 -37 91 -74 203 -38 111 -77 211 -87 221 -24 26 -79 24
-101 -4 -9 -11 -47 -113 -85 -225 -37 -113 -70 -201 -74 -197 -4 4 -37 98 -73
208 -37 111 -75 208 -84 216 -25 22 -57 27 -83 14z"/>
<path d="M2899 3056 c-54 -26 -51 -42 67 -392 60 -179 117 -334 127 -344 23
-25 78 -26 99 -2 9 9 46 107 83 217 38 110 71 203 74 207 4 4 37 -85 75 -198
37 -114 77 -215 87 -225 24 -24 74 -24 98 0 19 19 231 640 231 677 0 12 -8 32
-18 44 -22 28 -75 30 -103 4 -10 -9 -48 -105 -86 -220 -37 -112 -71 -204 -74
-204 -4 0 -37 91 -74 203 -37 111 -76 211 -85 221 -25 26 -80 24 -102 -4 -9
-11 -47 -113 -85 -225 -37 -113 -70 -201 -74 -197 -4 4 -37 98 -73 208 -37
111 -75 208 -84 216 -25 22 -57 27 -83 14z"/>
</g>
</svg>
